<?xml version="1.0" standalone="no"?>
<!DOCTYPE svg PUBLIC "-//W3C//DTD SVG 20010904//EN"
 "http://www.w3.org/TR/2001/REC-SVG-20010904/DTD/svg10.dtd">
<svg version="1.0" xmlns="http://www.w3.org/2000/svg"
 width="161.000000pt" height="163.000000pt" viewBox="0 0 161.000000 163.000000"
 preserveAspectRatio="xMidYMid meet">
<metadata>
Created by potrace 1.13, written by Peter Selinger 2001-2015
</metadata>
<g transform="translate(0.000000,163.000000) scale(0.100000,-0.100000)"
fill="#000000" stroke="none">
<path d="M0 1278 c0 -290 3 -349 13 -328 24 48 97 30 97 -24 0 -54 -73 -74
-97 -26 -10 20 -13 -59 -13 -437 l0 -463 128 1 c80 1 115 4 95 9 -48 11 -119
56 -147 93 -38 49 -57 114 -58 188 0 113 33 182 70 145 12 -12 12 -22 2 -66
-36 -152 49 -299 173 -300 100 0 156 99 95 167 -24 26 -20 57 8 61 28 4 71
-47 80 -94 14 -77 -36 -163 -111 -189 -35 -12 38 -14 618 -15 l657 0 -1 168
-1 167 -14 -70 c-7 -38 -28 -98 -45 -133 -26 -53 -38 -67 -73 -83 -51 -23 -65
-23 -87 -3 -15 14 -17 27 -12 78 9 103 -29 141 -66 67 -28 -54 -103 -116 -170
-142 -138 -52 -391 -26 -391 41 0 14 11 22 40 30 37 10 44 17 75 82 45 91 73
127 135 173 35 26 50 44 50 60 0 26 -17 35 -69 35 -69 0 -96 40 -71 106 15 40
128 145 185 174 29 13 74 26 106 28 48 4 60 1 78 -17 27 -27 28 -77 2 -91 -11
-5 -40 -10 -66 -10 -52 0 -104 -19 -134 -49 -35 -35 -14 -44 34 -16 54 32 126
36 156 9 16 -15 20 -27 16 -56 -9 -70 -49 -130 -160 -241 -106 -106 -131 -142
-66 -96 24 17 44 22 78 20 79 -3 163 65 238 194 33 56 59 67 89 34 16 -18 19
-35 17 -106 -1 -72 1 -84 15 -81 43 8 33 156 -18 265 -35 75 -38 113 -11 137
48 44 101 -1 127 -108 11 -44 12 -10 13 254 0 269 -1 301 -14 273 -17 -39 -80
-87 -145 -108 -60 -20 -215 -23 -287 -6 -55 14 -97 48 -88 74 11 27 59 41 100
27 43 -14 172 -5 223 15 17 8 32 16 32 18 0 2 -43 3 -96 3 -80 -1 -98 2 -107
16 -9 14 1 28 60 85 108 104 195 273 141 273 -6 0 -52 -42 -102 -94 -91 -93
-154 -136 -200 -136 -41 0 -56 25 -56 91 0 61 -11 75 -31 37 -8 -15 -10 -49
-5 -105 5 -75 4 -85 -14 -103 -22 -22 -33 -24 -60 -10 -40 21 -51 110 -24 201
37 123 109 223 170 235 54 10 66 -7 62 -85 -2 -37 1 -65 7 -67 6 -2 23 15 38
37 35 51 98 80 192 90 39 4 82 10 97 14 39 10 59 -26 65 -124 5 -62 2 -91 -11
-126 -20 -51 -57 -85 -93 -85 -18 0 -24 -5 -21 -17 2 -14 17 -20 58 -24 70 -8
90 -17 100 -43 5 -12 9 75 9 217 l1 237 -397 -1 c-322 0 -391 -2 -363 -12 65
-22 98 -108 70 -182 -7 -20 -16 -26 -33 -23 -19 3 -22 8 -20 48 4 59 -13 99
-45 107 -39 10 -57 -8 -57 -58 -1 -25 -4 -50 -9 -57 -11 -19 -54 -14 -66 7
-27 51 5 125 64 152 41 18 38 19 -356 19 l-398 0 0 -352z m326 296 c45 -22 64
-50 64 -96 0 -45 14 -49 34 -10 22 43 43 57 61 42 8 -7 14 -20 13 -28 -2 -9 5
-18 15 -20 23 -5 22 21 -3 43 -26 24 -25 35 3 35 32 0 70 -43 104 -115 23 -51
27 -73 28 -150 0 -117 -10 -161 -41 -181 -23 -16 -26 -15 -45 2 -17 15 -20 26
-15 64 17 139 19 200 4 200 -10 0 -13 -9 -10 -34 5 -42 -14 -102 -34 -110 -13
-5 -97 74 -153 145 -11 15 -35 32 -52 39 -29 13 -33 12 -51 -10 -25 -30 -16
-53 44 -119 86 -95 95 -136 36 -167 -31 -16 -91 -15 -147 2 -37 11 -22 -18 21
-39 33 -16 44 -17 122 -5 79 11 87 11 106 -7 14 -13 20 -29 18 -49 -10 -100
-207 -94 -344 10 -60 46 -92 132 -66 180 12 22 76 44 131 44 45 0 47 18 3 29
-45 13 -96 63 -110 111 -6 19 -12 72 -15 118 -4 91 -8 85 68 96 55 8 176 -4
211 -20z m1052 -205 c-48 -86 -198 -208 -380 -309 -88 -49 -197 -159 -236
-239 -35 -71 -42 -125 -16 -135 24 -9 31 0 38 52 7 55 43 131 68 146 13 8 23
5 42 -13 l24 -23 16 31 c31 59 98 75 174 41 61 -28 56 -50 -12 -50 -79 0 -110
-26 -171 -140 -56 -105 -80 -122 -151 -113 -36 5 -44 2 -54 -17 -13 -23 -8
-87 12 -150 16 -52 54 -97 93 -110 20 -6 35 -18 35 -27 0 -8 -14 -44 -30 -79
-38 -80 -53 -85 -151 -49 -173 62 -275 141 -348 268 -34 59 -39 92 -17 100 19
8 38 -10 68 -63 45 -78 124 -147 223 -196 50 -24 101 -44 114 -44 22 0 21 3
-17 44 -22 24 -50 62 -61 83 -11 22 -47 70 -80 106 -65 72 -67 77 -49 95 19
19 34 15 73 -19 43 -38 44 -35 14 117 -48 251 -129 424 -287 613 -34 40 -62
77 -62 82 0 43 146 -84 227 -198 60 -83 107 -175 139 -271 l31 -94 7 58 c9 75
54 210 106 316 47 96 60 111 83 102 25 -9 21 -27 -32 -144 -41 -89 -91 -225
-91 -248 0 -3 13 13 28 34 51 70 137 138 258 203 167 91 252 150 315 219 64
72 91 82 57 21z m-494 11 c27 -10 36 -43 15 -56 -6 -3 -43 -8 -83 -10 -39 -2
-84 -5 -101 -6 -25 -3 -31 1 -33 21 -5 31 6 40 59 50 62 12 113 13 143 1z
m711 -491 c0 -26 -5 -36 -23 -44 -15 -6 -21 -16 -19 -27 3 -9 -1 -25 -8 -34
-19 -27 -60 -11 -75 28 -6 18 -17 43 -22 55 -15 32 -2 43 50 43 26 0 54 5 62
10 24 15 35 6 35 -31z m-184 -14 c12 -56 9 -200 -6 -270 -22 -104 -76 -206
-150 -281 -58 -59 -95 -80 -95 -53 0 6 23 36 51 67 65 73 114 161 135 242 13
52 15 90 10 191 -3 69 -3 129 1 133 17 17 48 0 54 -29z m-1127 19 c24 -9 23
-189 -1 -198 -9 -4 -23 0 -32 9 -21 21 -22 154 -2 178 15 19 14 19 35 11z
m-90 -47 c8 -13 1 -25 -36 -61 -52 -49 -65 -88 -54 -162 7 -56 24 -89 82 -159
48 -60 53 -88 16 -93 -45 -7 -127 111 -157 224 -28 107 5 204 88 254 36 22 46
22 61 -3z m227 -24 c70 -63 86 -138 52 -242 -19 -60 -43 -79 -68 -55 -9 9 -14
21 -11 28 3 6 12 35 22 65 21 70 8 119 -41 157 -46 35 -47 78 -3 83 5 1 27
-16 49 -36z m-46 -198 c0 -29 -2 -30 -50 -36 -28 -3 -70 -16 -94 -28 -52 -27
-74 -22 -69 16 4 41 94 85 163 81 48 -3 50 -4 50 -33z m487 -122 c35 -32 18
-85 -28 -85 -47 0 -69 49 -37 84 20 22 41 23 65 1z m-534 -117 c2 -10 -6 -37
-19 -59 -22 -39 -26 -77 -17 -167 3 -30 0 -35 -20 -38 -18 -3 -26 4 -37 32
-26 62 -12 168 30 232 19 30 58 29 63 0z m270 -279 c2 -11 -8 -32 -23 -47 -53
-55 -130 -67 -130 -21 0 19 7 27 31 33 16 4 41 19 54 33 27 29 63 30 68 2z"/>
<path d="M130 1496 c0 -8 6 -16 14 -19 10 -4 12 0 9 14 -6 22 -23 26 -23 5z"/>
<path d="M172 1459 c2 -6 8 -10 13 -10 5 0 11 4 13 10 2 6 -4 11 -13 11 -9 0
-15 -5 -13 -11z"/>
<path d="M80 1140 c0 -5 7 -10 15 -10 8 0 15 5 15 10 0 6 -7 10 -15 10 -8 0
-15 -4 -15 -10z"/>
<path d="M877 776 c-4 -10 -1 -13 9 -9 15 6 19 23 5 23 -5 0 -11 -7 -14 -14z"/>
<path d="M857 743 c-4 -3 -7 -11 -7 -17 0 -6 5 -5 12 2 6 6 9 14 7 17 -3 3 -9
2 -12 -2z"/>
<path d="M1074 1486 c-8 -22 3 -33 18 -18 9 9 9 15 0 24 -9 9 -13 7 -18 -6z"/>
<path d="M1475 1130 c-3 -5 1 -10 9 -10 9 0 16 5 16 10 0 6 -4 10 -9 10 -6 0
-13 -4 -16 -10z"/>
<path d="M1017 564 c-14 -14 -7 -35 11 -32 9 2 17 10 17 17 0 16 -18 25 -28
15z"/>
<path d="M1480 220 c0 -5 5 -10 10 -10 6 0 10 5 10 10 0 6 -4 10 -10 10 -5 0
-10 -4 -10 -10z"/>
<path d="M950 149 c0 -12 5 -19 12 -17 18 6 20 25 3 31 -10 5 -15 0 -15 -14z"/>
<path d="M890 125 c0 -8 5 -15 10 -15 6 0 10 7 10 15 0 8 -4 15 -10 15 -5 0
-10 -7 -10 -15z"/>
</g>
</svg>
